<svg width="1053" height="259" viewBox="0 0 1053 259" fill="none" xmlns="http://www.w3.org/2000/svg">
<path d="M0 45.0435C0 20.1667 21.1489 0 47.2374 0H555.04C581.129 0 602.277 20.1667 602.277 45.0435V213.957C602.277 238.833 581.129 259 555.04 259H47.2374C21.1489 259 0 238.833 0 213.957V45.0435Z" fill="#2E3A59"/>
<path d="M671.859 141.977V213.957H641.497V50.1621H671.188V111.985H672.697C675.717 105.053 680.386 99.5883 686.704 95.5894C693.079 91.5372 701.186 89.5111 711.028 89.5111C719.974 89.5111 727.774 91.2973 734.428 94.8696C741.082 98.442 746.226 103.667 749.861 110.545C753.551 117.423 755.397 125.821 755.397 135.738V213.957H725.034V140.217C725.034 131.953 722.798 125.528 718.325 120.942C713.907 116.304 707.701 113.984 699.705 113.984C694.337 113.984 689.528 115.104 685.278 117.343C681.085 119.529 677.786 122.702 675.381 126.861C673.033 131.02 671.859 136.058 671.859 141.977Z" fill="#2E3A59"/>
<path d="M868.458 162.291V91.1107H898.82V213.957H869.38V192.123H868.038C865.131 199.001 860.35 204.626 853.696 208.998C847.098 213.37 838.962 215.556 829.289 215.556C820.846 215.556 813.381 213.77 806.895 210.198C800.464 206.572 795.432 201.32 791.798 194.442C788.163 187.511 786.346 179.14 786.346 169.329V91.1107H816.708V164.85C816.708 172.635 818.945 178.82 823.418 183.405C827.891 187.99 833.762 190.283 841.031 190.283C845.504 190.283 849.838 189.243 854.032 187.164C858.225 185.085 861.664 181.992 864.348 177.887C867.088 173.728 868.458 168.529 868.458 162.291Z" fill="#2E3A59"/>
<path d="M931.384 213.957V50.1621H961.746V111.425H963.004C964.57 108.439 966.778 105.267 969.63 101.908C972.482 98.4953 976.34 95.5894 981.204 93.1901C986.069 90.7374 992.276 89.5111 999.824 89.5111C1009.78 89.5111 1018.75 91.9371 1026.75 96.7891C1034.8 101.588 1041.17 108.706 1045.87 118.143C1050.62 127.527 1053 139.044 1053 152.694C1053 166.183 1050.68 177.647 1046.04 187.084C1041.4 196.521 1035.08 203.719 1027.08 208.678C1019.09 213.637 1010.03 216.116 999.908 216.116C992.527 216.116 986.405 214.943 981.54 212.597C976.675 210.251 972.761 207.425 969.798 204.119C966.89 200.76 964.625 197.588 963.004 194.602H961.243V213.957H931.384ZM961.159 152.534C961.159 160.478 962.333 167.436 964.681 173.408C967.086 179.379 970.525 184.045 974.998 187.404C979.527 190.71 985.007 192.363 991.437 192.363C998.147 192.363 1003.77 190.656 1008.3 187.244C1012.82 183.778 1016.24 179.06 1018.53 173.088C1020.88 167.063 1022.05 160.211 1022.05 152.534C1022.05 144.909 1020.9 138.138 1018.61 132.219C1016.32 126.301 1012.91 121.662 1008.38 118.303C1003.85 114.944 998.203 113.265 991.437 113.265C984.951 113.265 979.443 114.891 974.914 118.143C970.385 121.396 966.946 125.954 964.598 131.819C962.305 137.684 961.159 144.589 961.159 152.534Z" fill="#2E3A59"/>
<path d="M99.4402 213.957H38.5482V50.1621H99.9434C117.221 50.1621 132.095 53.4411 144.564 59.9993C157.033 66.5042 166.623 75.8616 173.333 88.0715C180.098 100.281 183.481 114.891 183.481 131.899C183.481 148.961 180.098 163.624 173.333 175.887C166.623 188.15 156.977 197.561 144.396 204.119C131.871 210.677 116.886 213.957 99.4402 213.957ZM74.8653 184.285H97.9305C108.666 184.285 117.697 182.472 125.022 178.846C132.402 175.167 137.938 169.489 141.628 161.811C145.375 154.08 147.248 144.109 147.248 131.899C147.248 119.796 145.375 109.905 141.628 102.228C137.938 94.5497 132.43 88.898 125.105 85.2723C117.78 81.6466 108.75 79.8338 98.0143 79.8338H74.8653V184.285Z" fill="white"/>
<path d="M246.449 216.276C238.23 216.276 230.905 214.916 224.474 212.197C218.044 209.424 212.956 205.346 209.209 199.96C205.519 194.522 203.674 187.75 203.674 179.646C203.674 172.821 204.988 167.09 207.616 162.451C210.244 157.812 213.822 154.08 218.352 151.254C222.881 148.428 228.025 146.295 233.784 144.856C239.599 143.416 245.694 142.403 252.069 141.817C259.561 141.07 265.6 140.377 270.185 139.737C274.77 139.044 278.097 138.031 280.166 136.698C282.235 135.365 283.27 133.392 283.27 130.78V130.3C283.27 125.235 281.592 121.316 278.237 118.543C274.938 115.77 270.241 114.384 264.146 114.384C257.716 114.384 252.6 115.744 248.798 118.463C244.995 121.129 242.479 124.488 241.249 128.54L208.203 125.981C209.88 118.516 213.179 112.065 218.1 106.626C223.021 101.135 229.367 96.9224 237.139 93.9899C244.967 91.004 254.026 89.5111 264.314 89.5111C271.471 89.5111 278.321 90.3109 284.863 91.9104C291.461 93.51 297.304 95.9893 302.393 99.3484C307.537 102.707 311.591 107.026 314.554 112.305C317.518 117.53 319 123.795 319 131.1V213.957H285.115V196.921H284.108C282.039 200.76 279.272 204.146 275.805 207.078C272.338 209.958 268.172 212.224 263.308 213.877C258.443 215.476 252.824 216.276 246.449 216.276ZM256.682 192.762C261.938 192.762 266.579 191.776 270.605 189.803C274.631 187.777 277.79 185.058 280.082 181.646C282.375 178.233 283.521 174.368 283.521 170.049V157.012C282.403 157.705 280.865 158.345 278.908 158.932C277.007 159.465 274.854 159.972 272.45 160.451C270.045 160.878 267.641 161.278 265.237 161.651C262.832 161.971 260.652 162.264 258.695 162.531C254.501 163.117 250.838 164.05 247.707 165.33C244.576 166.61 242.144 168.343 240.41 170.529C238.677 172.661 237.81 175.327 237.81 178.526C237.81 183.165 239.572 186.711 243.094 189.163C246.673 191.563 251.202 192.762 256.682 192.762Z" fill="white"/>
<path d="M415.244 91.1107V116.704H337.661V91.1107H415.244ZM355.275 61.6789H391.005V176.207C391.005 179.353 391.508 181.805 392.514 183.565C393.521 185.271 394.919 186.471 396.708 187.164C398.553 187.857 400.678 188.204 403.083 188.204C404.76 188.204 406.437 188.07 408.115 187.804C409.792 187.484 411.078 187.244 411.973 187.084L417.593 212.437C415.803 212.97 413.287 213.583 410.044 214.276C406.801 215.023 402.859 215.476 398.218 215.636C389.607 215.956 382.058 214.863 375.572 212.357C369.142 209.851 364.137 205.959 360.559 200.68C356.98 195.402 355.219 188.737 355.275 180.686V61.6789Z" fill="white"/>
<path d="M475.255 216.276C467.036 216.276 459.711 214.916 453.281 212.197C446.85 209.424 441.762 205.346 438.016 199.96C434.325 194.522 432.48 187.75 432.48 179.646C432.48 172.821 433.794 167.09 436.422 162.451C439.05 157.812 442.629 154.08 447.158 151.254C451.687 148.428 456.831 146.295 462.591 144.856C468.406 143.416 474.501 142.403 480.875 141.817C488.368 141.07 494.407 140.377 498.992 139.737C503.577 139.044 506.904 138.031 508.973 136.698C511.041 135.365 512.076 133.392 512.076 130.78V130.3C512.076 125.235 510.398 121.316 507.044 118.543C503.744 115.77 499.048 114.384 492.953 114.384C486.522 114.384 481.406 115.744 477.604 118.463C473.802 121.129 471.286 124.488 470.055 128.54L437.009 125.981C438.687 118.516 441.986 112.065 446.906 106.626C451.827 101.135 458.173 96.9224 465.946 93.9899C473.774 91.004 482.832 89.5111 493.121 89.5111C500.278 89.5111 507.127 90.3109 513.669 91.9104C520.268 93.51 526.111 95.9893 531.199 99.3484C536.343 102.707 540.397 107.026 543.361 112.305C546.324 117.53 547.806 123.795 547.806 131.1V213.957H513.921V196.921H512.915C510.846 200.76 508.078 204.146 504.611 207.078C501.144 209.958 496.979 212.224 492.114 213.877C487.249 215.476 481.63 216.276 475.255 216.276ZM485.488 192.762C490.744 192.762 495.385 191.776 499.411 189.803C503.437 187.777 506.596 185.058 508.889 181.646C511.181 178.233 512.328 174.368 512.328 170.049V157.012C511.209 157.705 509.672 158.345 507.714 158.932C505.813 159.465 503.661 159.972 501.256 160.451C498.852 160.878 496.448 161.278 494.043 161.651C491.639 161.971 489.458 162.264 487.501 162.531C483.307 163.117 479.645 164.05 476.514 165.33C473.382 166.61 470.95 168.343 469.217 170.529C467.483 172.661 466.617 175.327 466.617 178.526C466.617 183.165 468.378 186.711 471.901 189.163C475.479 191.563 480.008 192.762 485.488 192.762Z" fill="white"/>
</svg>
